# Main Block
v 0.5 1.0 0.5
v -0.5 1.0 0.5
v -0.5 0.0 0.5
v 0.5 0.0 0.5
v -0.5 1.0 -0.5
v 0.5 1.0 -0.5
v 0.5 0.0 -0.5
v -0.5 0.0 -0.5
v 0.5 1.0 -0.5
v 0.5 1.0 0.5
v 0.5 0.0 0.5
v 0.5 0.0 -0.5
v 0.5 0.0 0.5
v -0.5 0.0 0.5
v -0.5 0.0 -0.5
v 0.5 0.0 -0.5
v -0.5 1.0 0.5
v -0.5 1.0 -0.5
v -0.5 0.0 -0.5
v -0.5 0.0 0.5
v 0.5 1.0 -0.5
v -0.5 1.0 -0.5
v -0.5 1.0 0.5
v 0.5 1.0 0.5
vn 0.0 0.0 1.0
vn 0.0 0.0 1.0
vn 0.0 0.0 1.0
vn 0.0 0.0 1.0
vn 0.0 0.0 -1.0
vn 0.0 0.0 -1.0
vn 0.0 0.0 -1.0
vn 0.0 0.0 -1.0
vn 1.0 0.0 0.0
vn 1.0 0.0 0.0
vn 1.0 0.0 0.0
vn 1.0 0.0 0.0
vn 0.0 -1.0 0.0
vn 0.0 -1.0 0.0
vn 0.0 -1.0 0.0
vn 0.0 -1.0 0.0
vn -1.0 0.0 0.0
vn -1.0 0.0 0.0
vn -1.0 0.0 0.0
vn -1.0 0.0 0.0
vn 0.0 1.0 0.0
vn 0.0 1.0 0.0
vn 0.0 1.0 0.0
vn 0.0 1.0 0.0
vt 1.0 1.0
vt 0.5 1.0
vt 0.5 0.0
vt 1.0 0.0
vt 1.0 1.0
vt 0.5 1.0
vt 0.5 0.0
vt 1.0 0.0
vt 1.0 1.0
vt 0.5 1.0
vt 0.5 0.0
vt 1.0 0.0
vt 1.0 1.0
vt 0.5 1.0
vt 0.5 0.0
vt 1.0 0.0
vt 1.0 1.0
vt 0.5 1.0
vt 0.5 0.0
vt 1.0 0.0
vt 1.0 1.0
vt 0.5 1.0
vt 0.5 0.0
vt 1.0 0.0
f 1/1/1 3/3/3 4/4/4
f 1/1/1 2/2/2 3/3/3
f 5/5/5 7/7/7 8/8/8
f 5/5/5 6/6/6 7/7/7
f 9/9/9 11/11/11 12/12/12
f 9/9/9 10/10/10 11/11/11
f 13/13/13 15/15/15 16/16/16
f 13/13/13 14/14/14 15/15/15
f 17/17/17 19/19/19 20/20/20
f 17/17/17 18/18/18 19/19/19
f 21/21/21 23/23/23 24/24/24
f 21/21/21 22/22/22 23/23/23

# Root
v -0.1875 0.4375 0.75
v -0.6875 0.4375 0.75
v -0.6875 -0.0625 0.75
v -0.1875 -0.0625 0.75
v -0.6875 0.4375 0.25
v -0.1875 0.4375 0.25
v -0.1875 -0.0625 0.25
v -0.6875 -0.0625 0.25
v -0.1875 0.4375 0.25
v -0.1875 0.4375 0.75
v -0.1875 -0.0625 0.75
v -0.1875 -0.0625 0.25
v -0.1875 -0.0625 0.75
v -0.6875 -0.0625 0.75
v -0.6875 -0.0625 0.25
v -0.1875 -0.0625 0.25
v -0.6875 0.4375 0.75
v -0.6875 0.4375 0.25
v -0.6875 -0.0625 0.25
v -0.6875 -0.0625 0.75
v -0.1875 0.4375 0.25
v -0.6875 0.4375 0.25
v -0.6875 0.4375 0.75
v -0.1875 0.4375 0.75
vn 0.0 0.0 1.0
vn 0.0 0.0 1.0
vn 0.0 0.0 1.0
vn 0.0 0.0 1.0
vn 0.0 0.0 -1.0
vn 0.0 0.0 -1.0
vn 0.0 0.0 -1.0
vn 0.0 0.0 -1.0
vn 1.0 0.0 0.0
vn 1.0 0.0 0.0
vn 1.0 0.0 0.0
vn 1.0 0.0 0.0
vn 0.0 -1.0 0.0
vn 0.0 -1.0 0.0
vn 0.0 -1.0 0.0
vn 0.0 -1.0 0.0
vn -1.0 0.0 0.0
vn -1.0 0.0 0.0
vn -1.0 0.0 0.0
vn -1.0 0.0 0.0
vn 0.0 1.0 0.0
vn 0.0 1.0 0.0
vn 0.0 1.0 0.0
vn 0.0 1.0 0.0
vt 0.25 1.0
vt 0.0 1.0
vt 0.0 0.5
vt 0.25 0.5
vt 0.25 1.0
vt 0.0 1.0
vt 0.0 0.5
vt 0.25 0.5
vt 0.25 1.0
vt 0.0 1.0
vt 0.0 0.5
vt 0.25 0.5
vt 0.25 1.0
vt 0.0 1.0
vt 0.0 0.5
vt 0.25 0.5
vt 0.25 1.0
vt 0.0 1.0
vt 0.0 0.5
vt 0.25 0.5
vt 0.25 1.0
vt 0.0 1.0
vt 0.0 0.5
vt 0.25 0.5
f 25/25/25 27/27/27 28/28/28
f 25/25/25 26/26/26 27/27/27
f 29/29/29 31/31/31 32/32/32
f 29/29/29 30/30/30 31/31/31
f 33/33/33 35/35/35 36/36/36
f 33/33/33 34/34/34 35/35/35
f 37/37/37 39/39/39 40/40/40
f 37/37/37 38/38/38 39/39/39
f 41/41/41 43/43/43 44/44/44
f 41/41/41 42/42/42 43/43/43
f 45/45/45 47/47/47 48/48/48
f 45/45/45 46/46/46 47/47/47

# Root
v -0.5625 0.25 0.875
v -0.9375 0.25 0.875
v -0.9375 -0.125 0.875
v -0.5625 -0.125 0.875
v -0.9375 0.25 0.5
v -0.5625 0.25 0.5
v -0.5625 -0.125 0.5
v -0.9375 -0.125 0.5
v -0.5625 0.25 0.5
v -0.5625 0.25 0.875
v -0.5625 -0.125 0.875
v -0.5625 -0.125 0.5
v -0.5625 -0.125 0.875
v -0.9375 -0.125 0.875
v -0.9375 -0.125 0.5
v -0.5625 -0.125 0.5
v -0.9375 0.25 0.875
v -0.9375 0.25 0.5
v -0.9375 -0.125 0.5
v -0.9375 -0.125 0.875
v -0.5625 0.25 0.5
v -0.9375 0.25 0.5
v -0.9375 0.25 0.875
v -0.5625 0.25 0.875
vn 0.0 0.0 1.0
vn 0.0 0.0 1.0
vn 0.0 0.0 1.0
vn 0.0 0.0 1.0
vn 0.0 0.0 -1.0
vn 0.0 0.0 -1.0
vn 0.0 0.0 -1.0
vn 0.0 0.0 -1.0
vn 1.0 0.0 0.0
vn 1.0 0.0 0.0
vn 1.0 0.0 0.0
vn 1.0 0.0 0.0
vn 0.0 -1.0 0.0
vn 0.0 -1.0 0.0
vn 0.0 -1.0 0.0
vn 0.0 -1.0 0.0
vn -1.0 0.0 0.0
vn -1.0 0.0 0.0
vn -1.0 0.0 0.0
vn -1.0 0.0 0.0
vn 0.0 1.0 0.0
vn 0.0 1.0 0.0
vn 0.0 1.0 0.0
vn 0.0 1.0 0.0
vt 0.4375 1.0
vt 0.25 1.0
vt 0.25 0.625
vt 0.4375 0.625
vt 0.4375 1.0
vt 0.25 1.0
vt 0.25 0.625
vt 0.4375 0.625
vt 0.4375 1.0
vt 0.25 1.0
vt 0.25 0.625
vt 0.4375 0.625
vt 0.4375 1.0
vt 0.25 1.0
vt 0.25 0.625
vt 0.4375 0.625
vt 0.4375 1.0
vt 0.25 1.0
vt 0.25 0.625
vt 0.4375 0.625
vt 0.4375 1.0
vt 0.25 1.0
vt 0.25 0.625
vt 0.4375 0.625
f 49/49/49 51/51/51 52/52/52
f 49/49/49 50/50/50 51/51/51
f 53/53/53 55/55/55 56/56/56
f 53/53/53 54/54/54 55/55/55
f 57/57/57 59/59/59 60/60/60
f 57/57/57 58/58/58 59/59/59
f 61/61/61 63/63/63 64/64/64
f 61/61/61 62/62/62 63/63/63
f 65/65/65 67/67/67 68/68/68
f 65/65/65 66/66/66 67/67/67
f 69/69/69 71/71/71 72/72/72
f 69/69/69 70/70/70 71/71/71

# Root
v -0.75 0.0625 1.0625
v -1.0 0.0625 1.0625
v -1.0 -0.1875 1.0625
v -0.75 -0.1875 1.0625
v -1.0 0.0625 0.8125
v -0.75 0.0625 0.8125
v -0.75 -0.1875 0.8125
v -1.0 -0.1875 0.8125
v -0.75 0.0625 0.8125
v -0.75 0.0625 1.0625
v -0.75 -0.1875 1.0625
v -0.75 -0.1875 0.8125
v -0.75 -0.1875 1.0625
v -1.0 -0.1875 1.0625
v -1.0 -0.1875 0.8125
v -0.75 -0.1875 0.8125
v -1.0 0.0625 1.0625
v -1.0 0.0625 0.8125
v -1.0 -0.1875 0.8125
v -1.0 -0.1875 1.0625
v -0.75 0.0625 0.8125
v -1.0 0.0625 0.8125
v -1.0 0.0625 1.0625
v -0.75 0.0625 1.0625
vn 0.0 0.0 1.0
vn 0.0 0.0 1.0
vn 0.0 0.0 1.0
vn 0.0 0.0 1.0
vn 0.0 0.0 -1.0
vn 0.0 0.0 -1.0
vn 0.0 0.0 -1.0
vn 0.0 0.0 -1.0
vn 1.0 0.0 0.0
vn 1.0 0.0 0.0
vn 1.0 0.0 0.0
vn 1.0 0.0 0.0
vn 0.0 -1.0 0.0
vn 0.0 -1.0 0.0
vn 0.0 -1.0 0.0
vn 0.0 -1.0 0.0
vn -1.0 0.0 0.0
vn -1.0 0.0 0.0
vn -1.0 0.0 0.0
vn -1.0 0.0 0.0
vn 0.0 1.0 0.0
vn 0.0 1.0 0.0
vn 0.0 1.0 0.0
vn 0.0 1.0 0.0
vt 0.375 0.625
vt 0.25 0.625
vt 0.25 0.375
vt 0.375 0.375
vt 0.375 0.625
vt 0.25 0.625
vt 0.25 0.375
vt 0.375 0.375
vt 0.375 0.625
vt 0.25 0.625
vt 0.25 0.375
vt 0.375 0.375
vt 0.375 0.625
vt 0.25 0.625
vt 0.25 0.375
vt 0.375 0.375
vt 0.375 0.625
vt 0.25 0.625
vt 0.25 0.375
vt 0.375 0.375
vt 0.375 0.625
vt 0.25 0.625
vt 0.25 0.375
vt 0.375 0.375
f 73/73/73 75/75/75 76/76/76
f 73/73/73 74/74/74 75/75/75
f 77/77/77 79/79/79 80/80/80
f 77/77/77 78/78/78 79/79/79
f 81/81/81 83/83/83 84/84/84
f 81/81/81 82/82/82 83/83/83
f 85/85/85 87/87/87 88/88/88
f 85/85/85 86/86/86 87/87/87
f 89/89/89 91/91/91 92/92/92
f 89/89/89 90/90/90 91/91/91
f 93/93/93 95/95/95 96/96/96
f 93/93/93 94/94/94 95/95/95

# Root
v 0.65625 0.3125 -0.28125
v 0.34375 0.3125 -0.28125
v 0.34375 -0.0625 -0.28125
v 0.65625 -0.0625 -0.28125
v 0.34375 0.3125 -0.59375
v 0.65625 0.3125 -0.59375
v 0.65625 -0.0625 -0.59375
v 0.34375 -0.0625 -0.59375
v 0.65625 0.3125 -0.59375
v 0.65625 0.3125 -0.28125
v 0.65625 -0.0625 -0.28125
v 0.65625 -0.0625 -0.59375
v 0.65625 -0.0625 -0.28125
v 0.34375 -0.0625 -0.28125
v 0.34375 -0.0625 -0.59375
v 0.65625 -0.0625 -0.59375
v 0.34375 0.3125 -0.28125
v 0.34375 0.3125 -0.59375
v 0.34375 -0.0625 -0.59375
v 0.34375 -0.0625 -0.28125
v 0.65625 0.3125 -0.59375
v 0.34375 0.3125 -0.59375
v 0.34375 0.3125 -0.28125
v 0.65625 0.3125 -0.28125
vn 0.0 0.0 1.0
vn 0.0 0.0 1.0
vn 0.0 0.0 1.0
vn 0.0 0.0 1.0
vn 0.0 0.0 -1.0
vn 0.0 0.0 -1.0
vn 0.0 0.0 -1.0
vn 0.0 0.0 -1.0
vn 1.0 0.0 0.0
vn 1.0 0.0 0.0
vn 1.0 0.0 0.0
vn 1.0 0.0 0.0
vn 0.0 -1.0 0.0
vn 0.0 -1.0 0.0
vn 0.0 -1.0 0.0
vn 0.0 -1.0 0.0
vn -1.0 0.0 0.0
vn -1.0 0.0 0.0
vn -1.0 0.0 0.0
vn -1.0 0.0 0.0
vn 0.0 1.0 0.0
vn 0.0 1.0 0.0
vn 0.0 1.0 0.0
vn 0.0 1.0 0.0
vt 0.15625 1.0
vt 0.0 1.0
vt 0.0 0.625
vt 0.15625 0.625
vt 0.15625 1.0
vt 0.0 1.0
vt 0.0 0.625
vt 0.15625 0.625
vt 0.15625 1.0
vt 0.0 1.0
vt 0.0 0.625
vt 0.15625 0.625
vt 0.15625 1.0
vt 0.0 1.0
vt 0.0 0.6875
vt 0.15625 0.6875
vt 0.15625 1.0
vt 0.0 1.0
vt 0.0 0.625
vt 0.15625 0.625
vt 0.15625 1.0
vt 0.0 1.0
vt 0.0 0.6875
vt 0.15625 0.6875
f 97/97/97 99/99/99 100/100/100
f 97/97/97 98/98/98 99/99/99
f 101/101/101 103/103/103 104/104/104
f 101/101/101 102/102/102 103/103/103
f 105/105/105 107/107/107 108/108/108
f 105/105/105 106/106/106 107/107/107
f 109/109/109 111/111/111 112/112/112
f 109/109/109 110/110/110 111/111/111
f 113/113/113 115/115/115 116/116/116
f 113/113/113 114/114/114 115/115/115
f 117/117/117 119/119/119 120/120/120
f 117/117/117 118/118/118 119/119/119

# Root
v 0.78125 0.21875 -0.15625
v 0.46875 0.21875 -0.15625
v 0.46875 -0.09375 -0.15625
v 0.78125 -0.09375 -0.15625
v 0.46875 0.21875 -0.46875
v 0.78125 0.21875 -0.46875
v 0.78125 -0.09375 -0.46875
v 0.46875 -0.09375 -0.46875
v 0.78125 0.21875 -0.46875
v 0.78125 0.21875 -0.15625
v 0.78125 -0.09375 -0.15625
v 0.78125 -0.09375 -0.46875
v 0.78125 -0.09375 -0.15625
v 0.46875 -0.09375 -0.15625
v 0.46875 -0.09375 -0.46875
v 0.78125 -0.09375 -0.46875
v 0.46875 0.21875 -0.15625
v 0.46875 0.21875 -0.46875
v 0.46875 -0.09375 -0.46875
v 0.46875 -0.09375 -0.15625
v 0.78125 0.21875 -0.46875
v 0.46875 0.21875 -0.46875
v 0.46875 0.21875 -0.15625
v 0.78125 0.21875 -0.15625
vn 0.0 0.0 1.0
vn 0.0 0.0 1.0
vn 0.0 0.0 1.0
vn 0.0 0.0 1.0
vn 0.0 0.0 -1.0
vn 0.0 0.0 -1.0
vn 0.0 0.0 -1.0
vn 0.0 0.0 -1.0
vn 1.0 0.0 0.0
vn 1.0 0.0 0.0
vn 1.0 0.0 0.0
vn 1.0 0.0 0.0
vn 0.0 -1.0 0.0
vn 0.0 -1.0 0.0
vn 0.0 -1.0 0.0
vn 0.0 -1.0 0.0
vn -1.0 0.0 0.0
vn -1.0 0.0 0.0
vn -1.0 0.0 0.0
vn -1.0 0.0 0.0
vn 0.0 1.0 0.0
vn 0.0 1.0 0.0
vn 0.0 1.0 0.0
vn 0.0 1.0 0.0
vt 0.15625 0.5
vt 0.0 0.5
vt 0.0 0.1875
vt 0.15625 0.1875
vt 0.15625 0.5
vt 0.0 0.5
vt 0.0 0.1875
vt 0.15625 0.1875
vt 0.15625 0.5
vt 0.0 0.5
vt 0.0 0.1875
vt 0.15625 0.1875
vt 0.15625 0.5
vt 0.0 0.5
vt 0.0 0.1875
vt 0.15625 0.1875
vt 0.15625 0.5
vt 0.0 0.5
vt 0.0 0.1875
vt 0.15625 0.1875
vt 0.15625 0.5
vt 0.0 0.5
vt 0.0 0.1875
vt 0.15625 0.1875
f 121/121/121 123/123/123 124/124/124
f 121/121/121 122/122/122 123/123/123
f 125/125/125 127/127/127 128/128/128
f 125/125/125 126/126/126 127/127/127
f 129/129/129 131/131/131 132/132/132
f 129/129/129 130/130/130 131/131/131
f 133/133/133 135/135/135 136/136/136
f 133/133/133 134/134/134 135/135/135
f 137/137/137 139/139/139 140/140/140
f 137/137/137 138/138/138 139/139/139
f 141/141/141 143/143/143 144/144/144
f 141/141/141 142/142/142 143/143/143

# Root
v 0.90625 0.0625 -0.34375
v 0.71875 0.0625 -0.34375
v 0.71875 -0.1875 -0.34375
v 0.90625 -0.1875 -0.34375
v 0.71875 0.0625 -0.53125
v 0.90625 0.0625 -0.53125
v 0.90625 -0.1875 -0.53125
v 0.71875 -0.1875 -0.53125
v 0.90625 0.0625 -0.53125
v 0.90625 0.0625 -0.34375
v 0.90625 -0.1875 -0.34375
v 0.90625 -0.1875 -0.53125
v 0.90625 -0.1875 -0.34375
v 0.71875 -0.1875 -0.34375
v 0.71875 -0.1875 -0.53125
v 0.90625 -0.1875 -0.53125
v 0.71875 0.0625 -0.34375
v 0.71875 0.0625 -0.53125
v 0.71875 -0.1875 -0.53125
v 0.71875 -0.1875 -0.34375
v 0.90625 0.0625 -0.53125
v 0.71875 0.0625 -0.53125
v 0.71875 0.0625 -0.34375
v 0.90625 0.0625 -0.34375
vn 0.0 0.0 1.0
vn 0.0 0.0 1.0
vn 0.0 0.0 1.0
vn 0.0 0.0 1.0
vn 0.0 0.0 -1.0
vn 0.0 0.0 -1.0
vn 0.0 0.0 -1.0
vn 0.0 0.0 -1.0
vn 1.0 0.0 0.0
vn 1.0 0.0 0.0
vn 1.0 0.0 0.0
vn 1.0 0.0 0.0
vn 0.0 -1.0 0.0
vn 0.0 -1.0 0.0
vn 0.0 -1.0 0.0
vn 0.0 -1.0 0.0
vn -1.0 0.0 0.0
vn -1.0 0.0 0.0
vn -1.0 0.0 0.0
vn -1.0 0.0 0.0
vn 0.0 1.0 0.0
vn 0.0 1.0 0.0
vn 0.0 1.0 0.0
vn 0.0 1.0 0.0
vt 0.25 0.5
vt 0.15625 0.5
vt 0.15625 0.25
vt 0.25 0.25
vt 0.25 0.5
vt 0.15625 0.5
vt 0.15625 0.25
vt 0.25 0.25
vt 0.25 0.5
vt 0.15625 0.5
vt 0.15625 0.25
vt 0.25 0.25
vt 0.25 0.5
vt 0.15625 0.5
vt 0.15625 0.3125
vt 0.25 0.3125
vt 0.25 0.5
vt 0.15625 0.5
vt 0.15625 0.25
vt 0.25 0.25
vt 0.25 0.5
vt 0.15625 0.5
vt 0.15625 0.3125
vt 0.25 0.3125
f 145/145/145 147/147/147 148/148/148
f 145/145/145 146/146/146 147/147/147
f 149/149/149 151/151/151 152/152/152
f 149/149/149 150/150/150 151/151/151
f 153/153/153 155/155/155 156/156/156
f 153/153/153 154/154/154 155/155/155
f 157/157/157 159/159/159 160/160/160
f 157/157/157 158/158/158 159/159/159
f 161/161/161 163/163/163 164/164/164
f 161/161/161 162/162/162 163/163/163
f 165/165/165 167/167/167 168/168/168
f 165/165/165 166/166/166 167/167/167

